<svg xmlns="http://www.w3.org/2000/svg" viewBox="0 0 74.94 74.94"><g id="Layer_2" data-name="Layer 2"><g id="Objects"><path d="M37.11,15.12a22,22,0,1,0,22,22A22,22,0,0,0,37.11,15.12Zm0,3.82a18.1,18.1,0,0,1,11.08,3.8A22.28,22.28,0,0,1,39,29.49a84.81,84.81,0,0,0-6.39-10A18.23,18.23,0,0,1,37.11,18.94Zm-8.2,2a81.28,81.28,0,0,1,6.48,9.87,58.28,58.28,0,0,1-15.92,2A18.22,18.22,0,0,1,28.91,20.92Zm-10,16.2c0-.16,0-.31,0-.47A61.27,61.27,0,0,0,37.2,34.22c.42.87.83,1.75,1.23,2.63A28.33,28.33,0,0,0,23.14,48.73,18.11,18.11,0,0,1,18.93,37.12ZM37.11,55.29A18.06,18.06,0,0,1,26,51.44c3.61-5.67,8.22-9.35,13.93-11a72.08,72.08,0,0,1,3.75,13.67A17.91,17.91,0,0,1,37.11,55.29Zm10.08-3.07a75,75,0,0,0-3.52-12.64A36.47,36.47,0,0,1,55,39.94,18.15,18.15,0,0,1,47.19,52.22ZM42.21,36c-.45-1-.91-2.06-1.41-3.08A26,26,0,0,0,51,25.4a18,18,0,0,1,4.26,10.69A39.37,39.37,0,0,0,42.21,36Z"/><path d="M37.47,0A37.47,37.47,0,1,0,74.94,37.47,37.51,37.51,0,0,0,37.47,0Zm0,70.13A32.66,32.66,0,1,1,70.13,37.47,32.7,32.7,0,0,1,37.47,70.13Z"/></g></g></svg>